<svg width="512" height="512" viewBox="0 0 512 512" fill="none" xmlns="http://www.w3.org/2000/svg">
<path d="M413.538 0H98.4615C44.0827 0 0 44.0827 0 98.4615V413.538C0 467.917 44.0827 512 98.4615 512H413.538C467.917 512 512 467.917 512 413.538V98.4615C512 44.0827 467.917 0 413.538 0Z" fill="#151515"/>
<g clip-path="url(#clip0_30_28)">
<path d="M348.308 106H163.692C131.83 106 106 131.83 106 163.692V348.308C106 380.17 131.83 406 163.692 406H348.308C380.17 406 406 380.17 406 348.308V163.692C406 131.83 380.17 106 348.308 106Z" fill="#151515"/>
<path d="M322.346 200.904H238.116C229.672 200.904 222.827 207.749 222.827 216.192C222.827 224.636 229.672 231.481 238.116 231.481H322.346C330.79 231.481 337.635 224.636 337.635 216.192C337.635 207.749 330.79 200.904 322.346 200.904Z" fill="#FFFA87" stroke="black" stroke-width="0.5"/>
<path d="M326.961 193H242.731C234.383 193 227.615 199.767 227.615 208.115C227.615 216.463 234.383 223.231 242.731 223.231H326.961C335.309 223.231 342.077 216.463 342.077 208.115C342.077 199.767 335.309 193 326.961 193Z" fill="white" stroke="black" stroke-width="0.8"/>
<path d="M293.5 247.058H209.269C200.826 247.058 193.981 253.902 193.981 262.346C193.981 270.79 200.826 277.635 209.269 277.635H293.5C301.944 277.635 308.789 270.79 308.789 262.346C308.789 253.902 301.944 247.058 293.5 247.058Z" fill="#FFFA87" stroke="black" stroke-width="0.5"/>
<path d="M298.115 239.154H213.884C205.536 239.154 198.769 245.921 198.769 254.269C198.769 262.617 205.536 269.385 213.884 269.385H298.115C306.463 269.385 313.231 262.617 313.231 254.269C313.231 245.921 306.463 239.154 298.115 239.154Z" fill="white" stroke="black" stroke-width="0.8"/>
<path d="M200.327 306.192C200.327 297.749 193.482 290.904 185.038 290.904C176.595 290.904 169.75 297.749 169.75 306.192C169.75 314.636 176.595 321.481 185.038 321.481C193.482 321.481 200.327 314.636 200.327 306.192Z" fill="#FFFA87" stroke="black" stroke-width="0.5"/>
<path d="M204.769 300.423C204.769 292.075 198.002 285.308 189.654 285.308C181.306 285.308 174.539 292.075 174.539 300.423C174.539 308.771 181.306 315.538 189.654 315.538C198.002 315.538 204.769 308.771 204.769 300.423Z" fill="white" stroke="black" stroke-width="0.8"/>
</g>
<defs>
<clipPath id="clip0_30_28">
<rect width="300" height="300" fill="white" transform="translate(106 106)"/>
</clipPath>
</defs>
</svg>
